<svg xmlns="http://www.w3.org/2000/svg" version="1.1" xmlns:xlink="http://www.w3.org/1999/xlink" xmlns:svgjs="http://svgjs.com/svgjs" width="1440" height="560" preserveAspectRatio="none" viewBox="0 0 1440 560"><g mask="url(&quot;#SvgjsMask1059&quot;)" fill="none"><rect width="1440" height="560" x="0" y="0" fill="rgba(31, 31, 31, 1)"></rect><path d="M102.305,208.303C142.607,208.971,184.051,196.032,205.009,161.601C226.702,125.963,222.574,81.042,201.791,44.866C180.925,8.545,144.152,-15.314,102.305,-17.174C56.839,-19.195,8.234,-4.549,-13.78,35.283C-35.293,74.209,-19.45,121.361,5.329,158.294C27.048,190.665,63.328,207.657,102.305,208.303" fill="rgba(34, 34, 34, 1)" class="triangle-float3"></path><path d="M61.07,145.859C89.348,144.431,109.088,121.483,123.61,97.177C138.654,71.998,152.888,41.927,138.403,16.422C123.808,-9.276,90.622,-13.122,61.07,-12.941C31.937,-12.762,1.01,-7.215,-14.638,17.36C-31.284,43.501,-29.189,77.397,-13.457,104.098C2.036,130.394,30.588,147.398,61.07,145.859" fill="rgba(34, 34, 34, 1)" class="triangle-float1"></path><path d="M22.776,68.459C41.785,69.911,62.827,67.851,73.569,52.102C85.447,34.687,86.12,10.47,74.177,-6.9C63.346,-22.653,41.844,-23.136,22.776,-21.773C6.583,-20.616,-9.149,-14.401,-17.302,-0.363C-25.488,13.733,-24.348,31.161,-16.145,45.247C-7.998,59.238,6.633,67.226,22.776,68.459" fill="rgba(34, 34, 34, 1)" class="triangle-float3"></path><path d="M1423.846,228.851C1466.537,227.182,1489.781,183.186,1509.276,145.169C1526.538,111.507,1538.398,73.36,1520.738,39.905C1502.025,4.456,1463.929,-17.019,1423.846,-16.668C1384.341,-16.323,1349.639,7.383,1329.845,41.574C1310.008,75.84,1308.245,116.946,1326.007,152.333C1345.914,191.992,1379.505,230.584,1423.846,228.851" fill="rgba(34, 34, 34, 1)" class="triangle-float1"></path><path d="M1445.38,267.852C1494.235,265.507,1523.532,218.96,1546.884,175.984C1568.82,135.614,1584.576,89.932,1564.519,48.596C1541.979,2.142,1496.971,-35.304,1445.38,-33.215C1396.218,-31.224,1365.422,14.42,1341.861,57.614C1319.614,98.398,1304.947,144.933,1325.469,186.612C1348.328,233.036,1393.693,270.333,1445.38,267.852" fill="rgba(34, 34, 34, 1)" class="triangle-float2"></path><path d="M1399.1,164.622C1431.302,162.754,1457.028,141.766,1474.147,114.428C1492.676,84.839,1507.733,48.687,1490.826,18.142C1473.561,-13.051,1434.638,-24.007,1399.1,-21.159C1368.182,-18.681,1346.308,4.834,1329.737,31.053C1311.466,59.962,1291.526,93.757,1307.287,124.108C1323.81,155.926,1363.307,166.698,1399.1,164.622" fill="rgba(34, 34, 34, 1)" class="triangle-float2"></path><path d="M114.498,691.162C161.661,690.096,207.579,670.708,231.57,630.089C255.948,588.814,255.104,536.643,229.81,495.922C205.782,457.24,160.011,440.129,114.498,441.617C71.687,443.016,34.955,467.188,11.543,503.057C-14.748,543.336,-35.208,593.403,-12.114,635.597C11.603,678.929,65.113,692.278,114.498,691.162" fill="rgba(34, 34, 34, 1)" class="triangle-float2"></path><path d="M85.76,628.495C123.298,628.882,164.492,622.561,183.635,590.269C203.045,557.527,191.626,516.547,171.144,484.464C152.36,455.04,120.635,438.505,85.76,436.956C47.54,435.258,6.399,443.791,-13.856,476.247C-35.07,510.241,-30.616,554.754,-8.677,588.284C11.4,618.969,49.092,628.117,85.76,628.495" fill="rgba(34, 34, 34, 1)" class="triangle-float2"></path><path d="M136.033,712.78C189.022,714.446,248.897,710.391,276.58,665.178C305.063,618.657,286.47,560.143,257.962,513.637C230.963,469.592,187.669,437.538,136.033,435.897C81.447,434.162,26.963,458,-0.101,505.436C-26.959,552.51,-19.745,611.493,10,656.798C37.041,697.983,86.788,711.232,136.033,712.78" fill="rgba(34, 34, 34, 1)" class="triangle-float2"></path><path d="M1431.497,688.495C1478.048,691.162,1516.415,654.311,1537.911,612.935C1557.714,574.817,1553.715,530.519,1533.169,492.796C1511.555,453.112,1476.663,416.155,1431.497,417.557C1387.86,418.912,1358.875,459.325,1340.202,498.788C1324.442,532.095,1328.319,568.639,1344.297,601.841C1363.342,641.417,1387.649,685.983,1431.497,688.495" fill="rgba(34, 34, 34, 1)" class="triangle-float2"></path><path d="M1422.64,671.306C1465.734,673.131,1498.044,635.962,1518.603,598.044C1538.045,562.186,1545.341,518.887,1524.194,484.007C1503.676,450.165,1462.211,439.132,1422.64,439.762C1384.363,440.371,1344.978,453.607,1326.536,487.154C1308.608,519.766,1322.571,557.481,1339.789,590.473C1358.922,627.135,1381.323,669.557,1422.64,671.306" fill="rgba(34, 34, 34, 1)" class="triangle-float1"></path><path d="M1365.061,545.875C1388.616,546.577,1413.016,539.925,1425.784,520.119C1439.553,498.76,1440.109,471.075,1427.503,449.01C1414.801,426.779,1390.664,413.633,1365.061,413.837C1339.808,414.038,1316.188,427.701,1304.319,449.992C1293.077,471.106,1297.503,496.468,1310.304,516.675C1322.169,535.404,1342.9,545.214,1365.061,545.875" fill="rgba(34, 34, 34, 1)" class="triangle-float2"></path></g><defs><mask id="SvgjsMask1059"><rect width="1440" height="560" fill="#ffffff"></rect></mask><style>
            @keyframes float1 {
                0%{transform: translate(0, 0)}
                50%{transform: translate(-10px, 0)}
                100%{transform: translate(0, 0)}
            }

            .triangle-float1 {
                animation: float1 5s infinite;
            }

            @keyframes float2 {
                0%{transform: translate(0, 0)}
                50%{transform: translate(-5px, -5px)}
                100%{transform: translate(0, 0)}
            }

            .triangle-float2 {
                animation: float2 4s infinite;
            }

            @keyframes float3 {
                0%{transform: translate(0, 0)}
                50%{transform: translate(0, -10px)}
                100%{transform: translate(0, 0)}
            }

            .triangle-float3 {
                animation: float3 6s infinite;
            }
        </style></defs></svg>