<svg xmlns="http://www.w3.org/2000/svg" version="1.1" xmlns:xlink="http://www.w3.org/1999/xlink" xmlns:svgjs="http://svgjs.com/svgjs" width="1440" height="560" preserveAspectRatio="none" viewBox="0 0 1440 560"><g mask="url(&quot;#SvgjsMask1077&quot;)" fill="none"><rect width="1440" height="560" x="0" y="0" fill="rgba(31, 31, 31, 1)"></rect><path d="M284.644,631.392C319.109,629.29,351.596,612.848,367.986,582.457C383.636,553.436,376.374,519.438,360.646,490.459C343.978,459.749,319.505,431.283,284.644,428.902C245.973,426.261,208.784,445.811,188.247,478.684C166.417,513.629,159.622,558.98,181.616,593.822C202.53,626.952,245.538,633.777,284.644,631.392" fill="rgba(34, 34, 34, 1)" class="triangle-float1"></path><path d="M1372.292,369.733C1407.863,371.257,1443.095,352.635,1459.138,320.85C1473.999,291.407,1459.268,258.577,1442.826,229.987C1426.316,201.279,1405.377,171.302,1372.292,169.841C1337.301,168.296,1306.223,192.161,1290.077,223.243C1275.094,252.087,1281.54,285.577,1297.448,313.921C1313.773,343.008,1338.968,368.305,1372.292,369.733" fill="rgba(34, 34, 34, 1)" class="triangle-float1"></path><path d="M695.286,293.813C739.57,294.685,778.057,263.956,798.024,224.419C816.195,188.438,806.798,147.263,787.041,112.128C766.787,76.109,736.57,43.502,695.286,41.707C651.276,39.793,609.415,64.683,588.583,103.498C568.731,140.487,578.796,183.888,599.326,220.505C620.424,258.136,652.152,292.963,695.286,293.813" fill="rgba(34, 34, 34, 1)" class="triangle-float3"></path><path d="M412.858,303.632C446.652,301.169,469.175,272.231,485.319,242.44C500.5,214.427,509.513,181.584,494.113,153.691C478.279,125.011,445.619,111.114,412.858,111.192C380.245,111.27,350.079,126.755,332.274,154.079C312.523,184.39,302.297,222.68,319.458,254.529C337.341,287.717,375.259,306.372,412.858,303.632" fill="rgba(34, 34, 34, 1)" class="triangle-float2"></path><path d="M935.865,250.072C951.983,249.045,967.087,241.82,975.254,227.886C983.513,213.794,984.133,196.134,975.663,182.168C967.475,168.667,951.627,163.875,935.865,162.942C917.731,161.869,897.36,162.013,886.978,176.92C875.419,193.516,875.465,216.713,886.703,233.529C897,248.937,917.371,251.251,935.865,250.072" fill="rgba(34, 34, 34, 1)" class="triangle-float1"></path></g><defs><mask id="SvgjsMask1077"><rect width="1440" height="560" fill="#ffffff"></rect></mask><style>
            @keyframes float1 {
                0%{transform: translate(0, 0)}
                50%{transform: translate(-10px, 0)}
                100%{transform: translate(0, 0)}
            }

            .triangle-float1 {
                animation: float1 5s infinite;
            }

            @keyframes float2 {
                0%{transform: translate(0, 0)}
                50%{transform: translate(-5px, -5px)}
                100%{transform: translate(0, 0)}
            }

            .triangle-float2 {
                animation: float2 4s infinite;
            }

            @keyframes float3 {
                0%{transform: translate(0, 0)}
                50%{transform: translate(0, -10px)}
                100%{transform: translate(0, 0)}
            }

            .triangle-float3 {
                animation: float3 6s infinite;
            }
        </style></defs></svg>