<svg xmlns="http://www.w3.org/2000/svg" version="1.1" xmlns:xlink="http://www.w3.org/1999/xlink" xmlns:svgjs="http://svgjs.com/svgjs" width="1440" height="560" preserveAspectRatio="none" viewBox="0 0 1440 560"><g mask="url(&quot;#SvgjsMask1054&quot;)" fill="none"><rect width="1440" height="560" x="0" y="0" fill="rgba(31, 31, 31, 1)"></rect><path d="M62.183,157.026C93.473,155.615,116.286,129.478,129.799,101.221C141.417,76.927,138.276,49.345,124.837,26.009C111.369,2.623,89.084,-14.029,62.183,-16.187C30.731,-18.71,-3.732,-12.272,-20.695,14.333C-38.669,42.524,-33.685,78.927,-16.893,107.837C-0.183,136.607,28.946,158.525,62.183,157.026" fill="rgba(242, 108, 79, 1)" class="triangle-float2"></path><path d="M124.656,245.365C168.341,246.196,208.807,223.665,231.893,186.569C256.431,147.139,263.875,97.88,241.903,56.964C218.814,13.969,173.45,-14.011,124.656,-13.123C77.23,-12.26,36.219,18.892,14.572,61.099C-5.303,99.851,1.927,145.23,24.263,182.618C45.955,218.928,82.368,244.56,124.656,245.365" fill="rgba(242, 108, 79, 1)" class="triangle-float3"></path><path d="M134.542,263.295C187.73,263.658,247.236,260.97,275.725,216.054C305.652,168.871,294.285,106.705,263.39,60.151C235.569,18.228,184.855,3.627,134.542,3.308C83.523,2.984,30.754,15.797,2.829,58.497C-27.631,105.074,-33.45,167.343,-3.346,214.151C24.943,258.137,82.245,262.938,134.542,263.295" fill="rgba(242, 108, 79, 1)" class="triangle-float1"></path><path d="M1477.197,301.087C1531.256,300.895,1580.352,271.174,1607.733,224.562C1635.489,177.313,1640.546,118.151,1612.215,71.245C1584.71,25.707,1530.363,10.336,1477.197,8.44C1419.508,6.383,1354.421,11.674,1324.401,60.98C1293.595,111.577,1313.241,175.52,1345.044,225.496C1374.246,271.384,1422.805,301.28,1477.197,301.087" fill="rgba(242, 108, 79, 1)" class="triangle-float3"></path><path d="M1380.134,127.053C1407.231,126.283,1432.964,113.937,1446.643,90.533C1460.445,66.92,1461.099,36.93,1446.224,13.977C1432.42,-7.324,1405.512,-11.569,1380.134,-12.095C1353.448,-12.648,1324.262,-10.847,1309.126,11.138C1292.229,35.681,1291.179,69.097,1306.744,94.506C1321.727,118.965,1351.463,127.867,1380.134,127.053" fill="rgba(242, 108, 79, 1)" class="triangle-float3"></path><path d="M1370.729,121.539C1396.941,120.537,1415.147,98.663,1428.29,75.962C1441.47,53.198,1453.234,25.448,1439.268,3.158C1425.773,-18.38,1396.145,-15.929,1370.729,-15.906C1345.375,-15.883,1316.668,-17.68,1302.404,3.281C1286.839,26.153,1291.162,56.721,1305.002,80.676C1318.834,104.617,1343.099,122.595,1370.729,121.539" fill="rgba(242, 108, 79, 1)" class="triangle-float2"></path><path d="M134.833,747.101C192.647,748.377,247.631,714.554,272.828,662.504C295.56,615.546,273.598,562.877,245.2,519.112C219.859,480.058,181.286,452.914,134.833,449.832C81.828,446.315,23.737,457.379,-4.194,502.565C-33.212,549.51,-20.274,608.658,7.003,656.635C34.655,705.273,78.898,745.866,134.833,747.101" fill="rgba(242, 108, 79, 1)" class="triangle-float1"></path><path d="M26.466,529.318C45.843,528.943,63.206,518.057,72.906,501.278C82.616,484.482,83.031,464.191,74.063,446.987C64.326,428.309,47.517,412.897,26.466,412.193C4.328,411.452,-16.372,424.164,-26.987,443.605C-37.2,462.309,-34.467,485.053,-23.19,503.136C-12.577,520.154,6.414,529.706,26.466,529.318" fill="rgba(242, 108, 79, 1)" class="triangle-float2"></path><path d="M29.888,541.481C52.959,543.375,77.031,531.753,86.986,510.854C96.068,491.789,82.969,471.606,71.673,453.763C61.486,437.671,48.931,421.008,29.888,420.657C10.397,420.297,-5.622,434.896,-14.657,452.17C-23.019,468.158,-21.046,486.499,-12.993,502.645C-3.768,521.141,9.288,539.79,29.888,541.481" fill="rgba(242, 108, 79, 1)" class="triangle-float3"></path><path d="M1425.249,676.711C1471.596,678.858,1513.999,650.05,1536.282,609.354C1557.732,570.18,1553.427,522.811,1530.51,484.477C1508.221,447.194,1468.686,423.401,1425.249,423.627C1382.195,423.851,1342.225,447.624,1321.87,485.563C1302.512,521.643,1311.235,563.814,1330.713,599.829C1351.422,638.121,1381.763,674.696,1425.249,676.711" fill="rgba(242, 108, 79, 1)" class="triangle-float2"></path><path d="M1357.878,526.857C1379.171,528.044,1403.751,528.947,1415.459,511.122C1427.9,492.182,1422.565,466.614,1409.707,447.954C1398.417,431.569,1377.772,427.147,1357.878,427.561C1338.874,427.956,1319.557,433.811,1309.653,450.035C1299.37,466.878,1299.949,488.551,1310.441,505.265C1320.341,521.036,1339.286,525.82,1357.878,526.857" fill="rgba(242, 108, 79, 1)" class="triangle-float1"></path><path d="M1365.753,547.927C1390.533,549.614,1417.278,544.144,1430.759,523.284C1445.214,500.917,1445.056,470.611,1429.851,448.746C1416.218,429.141,1389.632,429.884,1365.753,429.801C1341.651,429.717,1313.267,427.624,1300.875,448.296C1288.305,469.265,1301.122,494.878,1314.463,515.365C1326.307,533.554,1344.098,546.452,1365.753,547.927" fill="rgba(242, 108, 79, 1)" class="triangle-float2"></path></g><defs><mask id="SvgjsMask1054"><rect width="1440" height="560" fill="#ffffff"></rect></mask><style>
            @keyframes float1 {
                0%{transform: translate(0, 0)}
                50%{transform: translate(-10px, 0)}
                100%{transform: translate(0, 0)}
            }

            .triangle-float1 {
                animation: float1 5s infinite;
            }

            @keyframes float2 {
                0%{transform: translate(0, 0)}
                50%{transform: translate(-5px, -5px)}
                100%{transform: translate(0, 0)}
            }

            .triangle-float2 {
                animation: float2 4s infinite;
            }

            @keyframes float3 {
                0%{transform: translate(0, 0)}
                50%{transform: translate(0, -10px)}
                100%{transform: translate(0, 0)}
            }

            .triangle-float3 {
                animation: float3 6s infinite;
            }
        </style></defs></svg>