<svg id="visual" viewBox="0 0 960 540" width="960" height="540" xmlns="http://www.w3.org/2000/svg" xmlns:xlink="http://www.w3.org/1999/xlink" version="1.1"><g fill="none" stroke="#f26c4f" stroke-width="2"><circle r="27" cx="883" cy="261"></circle><circle r="4" cx="51" cy="496"></circle><circle r="9" cx="889" cy="510"></circle><circle r="9" cx="807" cy="229"></circle><circle r="12" cx="203" cy="352"></circle><circle r="21" cx="856" cy="124"></circle><circle r="20" cx="244" cy="182"></circle><circle r="20" cx="899" cy="397"></circle><circle r="15" cx="275" cy="501"></circle><circle r="18" cx="404" cy="487"></circle><circle r="23" cx="43" cy="298"></circle><circle r="18" cx="561" cy="500"></circle><circle r="7" cx="89" cy="114"></circle><circle r="11" cx="723" cy="360"></circle><circle r="17" cx="90" cy="357"></circle><circle r="24" cx="525" cy="440"></circle><circle r="9" cx="623" cy="386"></circle><circle r="16" cx="296" cy="328"></circle><circle r="10" cx="498" cy="178"></circle><circle r="3" cx="421" cy="62"></circle><circle r="4" cx="643" cy="181"></circle><circle r="3" cx="386" cy="121"></circle></g></svg>