<svg xmlns="http://www.w3.org/2000/svg" version="1.1" xmlns:xlink="http://www.w3.org/1999/xlink" xmlns:svgjs="http://svgjs.com/svgjs" width="1440" height="560" preserveAspectRatio="none" viewBox="0 0 1440 560"><g mask="url(&quot;#SvgjsMask1002&quot;)" fill="none"><path d="M17.5 140C17.5 92.8 6.09 91.78 0 43.08C-2.66 21.78 -7.78 13.76 0 0C4.4 -7.78 12.55 -2.73 24.35 0C82.55 13.49 85.05 32.44 140 32.44C165.41 32.44 159.24 5.99 185.08 0C229.24 -10.23 232.54 0 280 0C350 0 350 0 420 0C490 0 490 0 560 0C618.51 0 677.01 -23.98 677.01 0C677.01 33.66 619.54 58.8 560 115.29C545.76 128.8 529.45 125.05 529.45 140C529.45 162.11 540.64 168.04 560 189.41C604.04 238.04 620.22 226.66 656.25 280C690.22 330.29 682.65 396.67 700 396.67C716.59 396.67 695.13 329.49 724.14 280C765.13 210.06 779.49 215.65 840 157.82C852.73 145.65 870.63 150.24 870.63 140C870.63 128.43 853.82 128.65 840 114.21C786.84 58.65 736.67 34.18 736.67 0C736.67 -22.93 788.34 0 840 0C910 0 910 0 980 0C1050 0 1050 0 1120 0C1190 0 1190 0 1260 0C1330 0 1330 0 1400 0C1470 0 1505 -35 1540 0C1575 35 1540 70 1540 140C1540 210 1540 210 1540 280C1540 333.24 1562.87 348.81 1540 386.48C1520.37 418.81 1455 403.98 1455 420C1455 435.81 1520.84 418.57 1540 450.13C1563.34 488.57 1567.3 532.36 1540 560C1513.05 587.3 1469.3 583.46 1431.5 560C1399.3 540.01 1424.66 473.1 1400 473.1C1368.26 473.1 1365.58 530.91 1318.71 560C1295.58 574.36 1289.36 560 1260 560C1190 560 1190 560 1120 560C1050 560 1050 560 980 560C910 560 910 560 840 560C770 560 770 560 700 560C630 560 630 560 560 560C502.72 560 501.1 565.96 445.45 560C431.1 558.46 432.98 545 420 545C405.26 545 406.36 558.25 390 560C336.36 565.75 335 560 280 560C210 560 210 560 140 560C70 560 35 595 0 560C-35 525 0 490 0 420C0 350 0 350 0 280C0 227.5 -6.37 226 0 175C2.38 156 17.5 158.76 17.5 140" stroke="rgba(242, 108, 79, 1)" stroke-width="2"></path><path d="M1120 315C1097.78 315 1090 367.83 1090 420C1090 465.33 1098.18 510 1120 510C1145.49 510 1184.62 466.15 1184.62 420C1184.62 368.65 1145.09 315 1120 315" stroke="rgba(242, 108, 79, 1)" stroke-width="2"></path><path d="M66.11 140C94.07 100.63 101.37 105.45 140 75.12C190.52 35.45 189.58 29.42 244.41 0C259.58 -8.14 262.2 0 280 0C350 0 350 0 420 0C490 0 490 0 560 0C592.39 0 624.78 -13.27 624.78 0C624.78 18.64 594.08 33.8 560 63.82C514.6 103.8 508.94 98.05 465.82 140C438.94 166.14 441.81 169.21 420 200C392.23 239.21 366.67 240.97 366.67 280C366.67 315.26 384.85 346.87 420 348.57C481.51 351.54 503.67 271.87 560 289.33C618.9 307.58 646.97 352.46 650.46 420C653.97 487.79 615.58 495.65 574 560C570.35 565.65 567 560 560 560C555.76 560 555.2 562.04 551.52 560C485.2 523.29 483.85 524.11 420 482.5C376.43 454.11 378.34 451.25 336.67 420C308.34 398.75 307.98 377.5 280 377.5C253.2 377.5 228.69 391.11 227.11 420C223.69 482.36 293.07 522.92 270 560C249.52 592.92 205 560 140 560C70 560 35 595 0 560C-35 525 0 490 0 420C0 350 0 350 0 280C0 276.11 -1.65 275.72 0 272.22C31.4 205.72 24.07 199.18 66.11 140" stroke="rgba(242, 108, 79, 1)" stroke-width="2"></path><path d="M840 22.11C828.79 12.3 820 6.62 820 0C820 -4.44 830 0 840 0C910 0 910 0 980 0C1050 0 1050 0 1120 0C1190 0 1190 0 1260 0C1330 0 1330 0 1400 0C1470 0 1496.92 -26.92 1540 0C1566.92 16.83 1552.57 48.4 1540 87.5C1530.07 118.4 1495 113.63 1495 140C1495 166.69 1529.93 162.29 1540 193.62C1552.43 232.29 1540 236.81 1540 280C1540 308.59 1554.5 337.18 1540 337.18C1515.46 337.18 1499.95 309.87 1461.92 280C1429.95 254.89 1436.62 231.54 1400 227.21C1335.66 219.59 1330.12 255.45 1260 256.1C1190.12 256.75 1184.59 256.59 1120 229.81C1044.59 198.54 1050 184.9 980 140C980 140 980 140 980 140C910 81.06 908.79 82.3 840 22.11" stroke="rgba(242, 108, 79, 1)" stroke-width="2"></path><path d="M784.48 280C792.21 243.8 806.06 221.45 840 221.45C903.82 221.45 910 250.73 980 280C980 280 980 280 980 280C1014.16 350 1020.98 347.46 1048.33 420C1073.76 487.46 1105.33 519.51 1085.57 560C1071.17 589.51 1032.78 560 980 560C912.92 560 905.19 569.89 845.83 560C835.19 558.23 843.91 548.03 840 536.67C819.79 478.03 810.6 480.18 797.58 420C782.84 351.84 771 343.08 784.48 280" stroke="rgba(242, 108, 79, 1)" stroke-width="2"></path><path d="M1475.25 560C1475.25 540.74 1521.08 494.43 1540 494.43C1553.46 494.43 1556.29 543.5 1540 560C1523.91 576.29 1475.25 573.53 1475.25 560" stroke="rgba(242, 108, 79, 1)" stroke-width="2"></path><path d="M114.72 140C116.73 124.29 125.47 117.8 140 117.8C165.68 117.8 171.73 122.51 195.15 140C241.73 174.79 242.69 177.31 280 222.35C300.67 247.31 311.11 252.99 311.11 280C311.11 299.31 297.66 299.72 280 315C216.77 369.72 174.36 354.29 149.33 420C127.69 476.79 190.2 507.05 186.67 560C185.53 577.05 163.33 560 140 560C113.51 560 106.96 574.33 87.03 560C36.96 524.02 33.58 513.39 0 459.38C-9.94 443.39 0 439.69 0 420C0 400.32 -12.01 394.73 0 380.63C47.62 324.73 89.03 343.4 119.26 280C146.39 223.09 106.36 205.39 114.72 140" stroke="rgba(242, 108, 79, 1)" stroke-width="2"></path><path d="M420 97.39C369.96 94.66 333.85 29.29 333.85 0C333.85 -19.41 376.92 0 420 0C490 0 490 0 560 0C566.27 0 572.54 -2.57 572.54 0C572.54 3.61 567.4 7.63 560 12.35C491.13 56.32 483.04 100.83 420 97.39" stroke="rgba(242, 108, 79, 1)" stroke-width="2"></path><path d="M1082.94 140C1073.75 77.64 1080.05 59.74 1095.86 0C1098.58 -10.26 1107.93 0 1120 0C1135.22 0 1138.21 -8.14 1150.43 0C1208.21 38.52 1202.47 93.33 1260 93.33C1327.25 93.33 1353.48 -12.59 1400 0C1439.73 10.75 1432.5 75.03 1432.5 140C1432.5 159.95 1420.67 166.16 1400 169.84C1334.42 181.52 1329.96 172.25 1260 170.73C1189.96 169.21 1187.37 175.46 1120 163.77C1098.84 160.1 1085.82 159.53 1082.94 140" stroke="rgba(242, 108, 79, 1)" stroke-width="2"></path><path d="M1540 14.58C1476.57 14.58 1400 3.65 1400 0C1400 -3.64 1476.6 -6.6 1540 0C1546.6 0.69 1546.57 14.58 1540 14.58" stroke="rgba(242, 108, 79, 1)" stroke-width="2"></path><path d="M1529.23 280C1529.23 274.59 1536.91 268.09 1540 268.09C1542.29 268.09 1540 274.04 1540 280C1540 283.94 1542 287.89 1540 287.89C1536.62 287.89 1529.23 284.49 1529.23 280" stroke="rgba(242, 108, 79, 1)" stroke-width="2"></path><path d="M420 420C420 392.13 498.24 367.11 560 367.11C586.55 367.11 596.62 393.06 596.62 420C596.62 449.26 587.79 479.5 560 479.5C499.48 479.5 420 448.33 420 420" stroke="rgba(242, 108, 79, 1)" stroke-width="2"></path><path d="M907.74 420C919.75 381.84 950.4 365.37 980 365.37C999.86 365.37 999.43 390.78 1006.67 420C1023.53 488.09 1038.15 507.77 1028.2 560C1024.81 577.77 1004.1 560 980 560C949.38 560 929.72 581.26 918.75 560C893.59 511.26 889.12 479.16 907.74 420" stroke="rgba(242, 108, 79, 1)" stroke-width="2"></path><path d="M1519 560C1519 553.75 1533.87 538.73 1540 538.73C1544.37 538.73 1545.28 554.65 1540 560C1534.78 565.28 1519 564.39 1519 560" stroke="rgba(242, 108, 79, 1)" stroke-width="2"></path></g><defs><mask id="SvgjsMask1002"><rect width="1440" height="560" fill="#ffffff"></rect></mask></defs></svg>