<svg xmlns="http://www.w3.org/2000/svg" version="1.1" xmlns:xlink="http://www.w3.org/1999/xlink" xmlns:svgjs="http://svgjs.com/svgjs" width="1440" height="560" preserveAspectRatio="none" viewBox="0 0 1440 560"><g mask="url(&quot;#SvgjsMask1008&quot;)" fill="none"><path d="M1533.38 66.4C1389.83 73.48 1215.66 324.66 1019.43 324 823.21 323.34 869.55-27.07 762.46-81.04" stroke="rgba(242, 108, 79, 1)" stroke-width="2"></path><path d="M1627.17 441.87C1513.83 441.66 1403.2 371.87 1179.23 371.87 955.26 371.87 980.18 453.28 731.3 441.87 482.41 430.46 445.55-17.04 283.36-64.71" stroke="rgba(242, 108, 79, 1)" stroke-width="2"></path><path d="M1484.89 483.88C1283.82 480.65 1033.7 242.82 720.99 231.88 408.28 220.94 452.84-8.66 339.04-19.61" stroke="rgba(242, 108, 79, 1)" stroke-width="2"></path><path d="M1726.12 122.72C1610.19 122.52 1496.92 52.72 1267.72 52.72 1038.52 52.72 1039.45 122.8 809.32 122.72 579.19 122.64 471.69-27.87 350.92-29.86" stroke="rgba(242, 108, 79, 1)" stroke-width="2"></path><path d="M1646.16 344.07C1508.41 345.23 1395.4 489.36 1113.24 484.07 831.07 478.78 760.85 11.32 580.31-27.79" stroke="rgba(242, 108, 79, 1)" stroke-width="2"></path></g><defs><mask id="SvgjsMask1008"><rect width="1440" height="560" fill="#ffffff"></rect></mask></defs></svg>