<svg xmlns="http://www.w3.org/2000/svg" version="1.1" xmlns:xlink="http://www.w3.org/1999/xlink" xmlns:svgjs="http://svgjs.com/svgjs" width="1903" height="662" preserveAspectRatio="none" viewBox="0 0 1903 662"><g mask="url(&quot;#SvgjsMask1057&quot;)" fill="none"><rect width="1903" height="662" x="0" y="0" fill="rgba(34, 34, 34, 1)"></rect><path d="M0,637.18C120.45,640.588,245.638,601.771,334.276,520.143C417.985,443.054,428.045,319.678,462.528,211.23C492.73,116.247,521.703,24.368,523.604,-75.283C525.806,-190.725,550.795,-324.493,474.4,-411.07C397.996,-497.656,262.502,-493.518,147.318,-501.718C50.703,-508.596,-43.76,-491.019,-133.407,-454.342C-216.173,-420.48,-284.65,-364.868,-346.06,-299.863C-409.857,-232.33,-461.991,-157.93,-495.338,-71.219C-536.016,34.554,-592.446,147.112,-559.679,255.597C-526.055,366.921,-418.42,436.055,-322.336,501.564C-224.033,568.586,-118.929,633.815,0,637.18" fill="#1b1b1b"></path><path d="M1903 1121.1689999999999C1999.526 1116.4479999999999 2098.301 1142.654 2186.475 1103.096 2281.61 1060.416 2360.174 985.117 2410.192 893.627 2462.353 798.218 2490.2309999999998 687.396 2472.381 580.135 2454.712 473.96000000000004 2377.853 392.681 2312.583 307.094 2242.952 215.789 2192.527 78.47400000000005 2078.638 63.83299999999997 1961.503 48.774 1880.6 178.86599999999999 1778.635 238.45100000000002 1704.644 281.689 1620.7060000000001 304.135 1561.461 366.055 1500.204 430.077 1469.749 512.559 1437.429 595.061 1395.959 700.922 1312.679 807.694 1345.85 916.442 1378.9969999999998 1025.112 1494.4850000000001 1092.539 1601.126 1131.725 1697.588 1167.17 1800.355 1126.189 1903 1121.1689999999999" fill="#292929"></path></g><defs><mask id="SvgjsMask1057"><rect width="1903" height="662" fill="#ffffff"></rect></mask></defs></svg>