<svg xmlns="http://www.w3.org/2000/svg" version="1.1" xmlns:xlink="http://www.w3.org/1999/xlink" xmlns:svgjs="http://svgjs.com/svgjs" width="1440" height="560" preserveAspectRatio="none" viewBox="0 0 1440 560"><g mask="url(&quot;#SvgjsMask1282&quot;)" fill="none"><rect width="1440" height="560" x="0" y="0" fill="rgba(34, 34, 34, 1)"></rect><path d="M -901.3798868735407,396 C -805.38,372.6 -613.38,258.2 -421.3798868735407,279 C -229.38,299.8 -133.38,515.2 58.62011312645927,500 C 250.62,484.8 346.62,213.8 538.6201131264593,203 C 730.62,192.2 838.34,444.6 1018.6201131264593,446 C 1198.9,447.4 1355.72,257.2 1440,210" stroke="rgba(41, 41, 41, 1)" stroke-width="2"></path><path d="M -220.9132579184497,108 C -124.91,190.2 67.09,532.2 259.0867420815503,519 C 451.09,505.8 547.09,82.8 739.0867420815503,42 C 931.09,1.2 1027.09,269.4 1219.0867420815503,315 C 1411.09,360.6 1654.9,260.8 1699.0867420815503,270 C 1743.27,279.2 1491.82,342.8 1440,361" stroke="rgba(41, 41, 41, 1)" stroke-width="2"></path><path d="M -705.0904916687903,142 C -609.09,172.8 -417.09,311.8 -225.09049166879026,296 C -33.09,280.2 62.91,40 254.90950833120974,63 C 446.91,86 542.91,392.8 734.9095083312097,411 C 926.91,429.2 1073.89,126.2 1214.9095083312097,154 C 1355.93,181.8 1394.98,470.8 1440,550" stroke="rgba(41, 41, 41, 1)" stroke-width="2"></path></g><defs><mask id="SvgjsMask1282"><rect width="1440" height="560" fill="#ffffff"></rect></mask></defs></svg>